<svg viewBox="0 0 658 671" fill="none" xmlns="http://www.w3.org/2000/svg">
<path d="M657.489 395.277C657.489 547.394 510.387 670.71 328.927 670.71C147.468 670.71 0.365479 547.394 0.365479 395.277C0.365479 243.16 147.468 119.844 328.927 119.844C510.387 119.844 657.489 243.16 657.489 395.277Z" fill="currentColor"/>
<path d="M105.082 328.985L156.702 309.345C172.21 303.444 185.113 292.22 193.105 277.679L215.401 237.113C225.328 219.05 227.052 197.39 217.881 178.931C170.47 83.5014 69.9701 -28.091 37.4162 7.2951C-10.0819 58.9261 1.94379 194.316 19.7586 284.574C27.4206 323.393 68.1009 343.056 105.082 328.985Z" fill="currentColor"/>
<path d="M556.967 328.985L505.347 309.345C489.839 303.444 476.936 292.22 468.944 277.679L446.648 237.113C436.72 219.05 434.997 197.39 444.168 178.931C491.579 83.5014 592.079 -28.091 624.633 7.2951C672.131 58.9261 660.105 194.316 642.29 284.574C634.628 323.393 593.948 343.056 556.967 328.985Z" fill="currentColor"/>
</svg>
