<svg xmlns="http://www.w3.org/2000/svg" fill="none" viewBox="0 0 1024 1024">
    <path d="M840.489 568.277C840.489 720.394 693.387 843.71 511.927 843.71C330.468 843.71 183.365 720.394 183.365 568.277C183.365 416.16 330.468 292.844 511.927 292.844C693.387 292.844 840.489 416.16 840.489 568.277Z"/>
    <path d="M288.082 501.985L339.702 482.345C355.21 476.444 368.113 465.22 376.105 450.679L398.401 410.113C408.328 392.05 410.052 370.39 400.881 351.931C353.47 256.501 252.97 144.909 220.416 180.295C172.918 231.926 184.944 367.316 202.759 457.574C210.421 496.393 251.101 516.056 288.082 501.985Z" />
    <path d="M739.967 501.985L688.347 482.345C672.839 476.444 659.936 465.22 651.944 450.679L629.648 410.113C619.72 392.05 617.997 370.39 627.168 351.931C674.579 256.501 775.079 144.909 807.633 180.295C855.131 231.926 843.105 367.316 825.29 457.574C817.628 496.393 776.948 516.056 739.967 501.985Z" />

    <style>
        path { fill: #000; }
        @media (prefers-color-scheme: dark) {
            path { fill: #FFF; }
        }
    </style>
</svg>
